<svg width="69" height="69" viewBox="0 0 69 69" fill="none" xmlns="http://www.w3.org/2000/svg">
<g id="interface/seen">
<path id="Vector" d="M6.62685 32.3004C7.17509 31.7705 7.91138 31.48 8.67376 31.493C9.43614 31.5059 10.1622 31.8212 10.6921 32.3694L19.9093 41.9115L41.1125 20.9557C41.6652 20.48 42.3779 20.2321 43.1065 20.2622C43.8351 20.2923 44.525 20.5981 45.0366 21.1177C45.5482 21.6374 45.8432 22.332 45.8619 23.0609C45.8806 23.7899 45.6217 24.4987 45.1375 25.0439L21.8758 48.0439C21.3399 48.574 20.6172 48.8724 19.8633 48.8748H19.8375C19.4581 48.8724 19.0829 48.795 18.7335 48.647C18.3842 48.499 18.0676 48.2832 17.802 48.0123L6.55785 36.3657C6.02792 35.8174 5.73747 35.0811 5.75041 34.3187C5.76335 33.5564 6.07862 32.8303 6.62685 32.3004ZM58.3625 20.9557L37.168 41.9115L36.4118 41.1267C36.1498 40.8536 35.8365 40.6349 35.4898 40.4832C35.1431 40.3315 34.7698 40.2497 34.3914 40.2426C34.013 40.2354 33.637 40.3031 33.2848 40.4416C32.9326 40.5802 32.6112 40.7869 32.3391 41.0499C32.067 41.3129 31.8495 41.6271 31.6991 41.9744C31.5487 42.3217 31.4683 42.6952 31.4626 43.0736C31.4569 43.452 31.5259 43.8279 31.6658 44.1795C31.8056 44.5312 32.0136 44.8518 32.2776 45.1229L35.0548 47.9979C35.3204 48.2689 35.637 48.4846 35.9864 48.6326C36.3357 48.7807 36.7109 48.8581 37.0903 48.8604H37.122C37.8758 48.858 38.5985 48.5596 39.1345 48.0295L62.3961 25.0295C62.87 24.4819 63.1197 23.7756 63.0954 23.0518C63.0711 22.328 62.7745 21.6401 62.265 21.1255C61.7555 20.6109 61.0705 20.3075 60.347 20.276C59.6235 20.2445 58.9148 20.4872 58.3625 20.9557Z" fill="#111111"/>
</g>
</svg>
